<?xml version="1.0" encoding="utf-8"?>
<!-- Generator: Adobe Illustrator 24.0.2, SVG Export Plug-In . SVG Version: 6.00 Build 0)  -->
<svg version="1.1" id="Слой_1" xmlns="http://www.w3.org/2000/svg" xmlns:xlink="http://www.w3.org/1999/xlink" x="0px" y="0px"
	 width="190px" height="50px" viewBox="0 0 190 50" enable-background="new 0 0 190 50" xml:space="preserve">
<g>
	<path fill="#999999" d="M42.6,8.2L42.6,8.2L25.4,0.4L7.8,7l0,0L0,24.2l6.6,17.6l0,0l17.1,7.8l0,0L41.4,43l0,0l7.8-17.1l0,0
		L42.6,8.2z M41.3,42.8l-17.4,6.6l-17-7.7L0.3,24.2L8,7.2l17.4-6.6l17,7.7l6.6,17.4L41.3,42.8z"/>
	<path fill="#999999" d="M25.8,0.9L8.4,7.2L0.6,23.9l6.2,17.3l0,0L23.5,49l17.3-6.2l0,0l7.8-16.7L42.5,8.8l0,0L25.8,0.9L25.8,0.9z
		 M48.4,26.1l-7.8,16.5l-17.1,6.2L7,41L0.8,23.9L8.6,7.4l17.1-6.2L42.2,9L48.4,26.1z"/>
	<path fill="#999999" d="M9,7.3L1.1,23.5l5.9,17v0l16.2,7.9l17-5.9h0l7.9-16.2l-5.8-17v0L26.1,1.5l0,0L9,7.3L9,7.3z M26.1,1.8
		l16,7.8l5.8,16.8l-7.8,16l-16.8,5.8l-16-7.8L1.4,23.6l7.8-16L26.1,1.8z"/>
	<path fill="#999999" d="M7.1,40l15.7,8l0,0l16.8-5.5l8-15.7l0,0L42.2,10v0L26.4,2L9.6,7.5L1.7,23.2l0,0L7.1,40z M9.8,7.7l16.6-5.4
		l15.5,7.9l5.4,16.6l-7.9,15.5l-16.6,5.4L7.3,39.8L1.9,23.2L9.8,7.7z"/>
	<path fill="#999999" d="M22.5,47.4L39,42.3l8.1-15.2l0,0L42,10.7v0L26.8,2.6h-0.1L10.2,7.7L2.2,22.9l5.1,16.5L22.5,47.4L22.5,47.4z
		 M2.4,22.9l7.9-15.1l16.3-5l15.1,7.9l5,16.3l-7.9,15.1l-16.3,5L7.5,39.2L2.4,22.9z"/>
	<path fill="#999999" d="M46.5,27.5L46.5,27.5l-4.6-16.2v0L27.1,3.1l0,0L10.9,7.8h0L2.7,22.5l0,0l4.7,16.1v0l14.7,8.1l0,0l16.2-4.7
		L46.5,27.5z M22.2,46.6l-14.6-8L3,22.6L11,8l16-4.6l14.6,8l4.6,16l-8,14.6L22.2,46.6z"/>
	<path fill="#999999" d="M41.7,11.9L41.7,11.9L27.4,3.7l0,0L11.5,7.9h0L3.3,22.2l0,0L7.6,38v0l14.2,8.2l0,0L37.7,42h0l8.2-14.2l0,0
		L41.7,11.9z M37.6,41.8l-15.7,4.2L7.8,38L3.6,22.3l8.1-14.1l15.7-4.2L41.5,12l4.2,15.7L37.6,41.8z"/>
	<path fill="#999999" d="M12.1,8.1L3.8,21.9l3.9,15.6l13.8,8.2l0,0l15.6-3.9l8.2-13.8l0,0l-3.9-15.6L27.7,4.2L12.1,8.1z M45.1,28.1
		L37,41.7l-15.4,3.9L7.9,37.4L4.1,21.9l8.2-13.6l15.4-3.9l13.6,8.2L45.1,28.1z"/>
	<path fill="#999999" d="M4.4,21.5L4.4,21.5l3.5,15.4l13.3,8.3l0,0l15.3-3.5l8.3-13.3l0,0l-3.5-15.3v0L28.1,4.8l0,0L12.7,8.2
		L4.4,21.5z M28,5l13.1,8.2l3.5,15.1l-8.2,13.1l-15.1,3.5L8.1,36.7L4.6,21.6l8.2-13.1L28,5z"/>
	<path fill="#999999" d="M8,36.2L8,36.2l12.8,8.5l15-3.1l8.4-12.8l-3.1-15v0L28.4,5.3l0,0l-15,3.1h0L4.9,21.2l0,0L8,36.2z M13.5,8.7
		l14.8-3.1L41,13.9L44,28.7l-8.3,12.7l-14.8,3.1L8.3,36.1L5.2,21.3L13.5,8.7z"/>
	<path fill="#999999" d="M35.3,41.5l8.5-12.4l-2.7-14.8L28.8,5.9l0,0L14,8.5L5.5,20.9l2.7,14.8l12.4,8.5L35.3,41.5z M20.2,43.6
		l14.2-2.3l-13.8,2.6L20.2,43.6z M9.5,18.7l8.9-8.8l12.5,0l8.8,8.9l0,12.5l-8.9,8.8l-12.5,0l-8.8-8.9L9.5,18.7z M37.7,33.7l-6.2,6.6
		H31L37.7,33.7z M40,31.3l0-9.4l0.3,9.1L40,31.3z M33.3,12l6.6,6.2v0.4L33.3,12z M30.9,9.7l-9.4,0l9.1-0.3L30.9,9.7z M18.2,9.7
		l-6.6,6.6l6.2-6.6H18.2z M9.3,18.7l0,9.4L9,19L9.3,18.7z M15.9,38l-6.6-6.2v-0.4L15.9,38z M18.4,40.3l9.4,0l-9.1,0.3L18.4,40.3z
		 M38.6,33.1l-6.5,7.3l-0.4,0L38.6,33.1z M40.5,31l-0.3-10.1l0.6,9.8L40.5,31z M32.7,11l7.3,6.5l0,0.4L32.7,11z M20.4,9.4l9.8-0.6
		l0.3,0.3L20.4,9.4z M17.6,9.5l-6.9,7.3l6.5-7.3L17.6,9.5z M8.7,19L9,29.2l-0.6-9.8L8.7,19z M16.5,39l-7.3-6.5l0-0.4L16.5,39z
		 M28.8,40.6L19,41.2l-0.3-0.3L28.8,40.6z M39.5,32.5l-6.9,8.1l-0.4,0L39.5,32.5z M41,30.7l-0.6-10.9l0.9,10.6L41,30.7z M32.1,10.1
		l8.1,6.8l0,0.4L32.1,10.1z M19.4,9.2l10.6-0.9l0.3,0.3L19.4,9.2z M17,9.4l-7.3,8.1l6.8-8.1L17,9.4z M8.2,19.3l0.6,10.9L7.9,19.7
		L8.2,19.3z M17.1,39.9L9.1,33l0-0.4L17.1,39.9z M29.9,40.8l-10.6,0.9L19,41.5L29.9,40.8z M40.4,31.8l-7.2,8.9l-0.4,0L40.4,31.8z
		 M41.6,30.3l-1-11.7L41.9,30L41.6,30.3z M31.4,9.2l8.9,7.2l0,0.4L31.4,9.2z M18.3,9l11.4-1.3L29.9,8L18.3,9z M16.4,9.2l-7.6,9
		L16,9.2L16.4,9.2z M7.6,19.7l1,11.7L7.4,20L7.6,19.7z M17.8,40.8l-8.9-7.1l0-0.4L17.8,40.8z M31,41l-11.4,1.3L19.3,42L31,41z
		 M41.3,31.1l-7.4,9.8l-0.4,0.1L41.3,31.1z M42.2,30l-1.4-12.5l1.7,12.2L42.2,30z M30.7,8.3l9.8,7.4l0.1,0.4L30.7,8.3z M17.1,8.9
		l12.2-1.7l0.4,0.3L17.1,8.9z M15.8,9.1l-7.9,9.8l7.4-9.8L15.8,9.1z M7.1,20l1.4,12.5L6.8,20.3L7.1,20z M18.5,41.7l-9.8-7.4
		l-0.1-0.4L18.5,41.7z M32.1,41.1l-12.2,1.7l-0.4-0.3L32.1,41.1z M42.2,30.4L34.5,41l-0.4,0.1L42.2,30.4z M42.7,29.7l-1.8-13.4
		l2.1,13L42.7,29.7z M30,7.4l10.7,7.7l0.1,0.4L30,7.4z M16,8.8l13-2.1l0.4,0.3L16,8.8z M7,19.6L14.7,9l0.4-0.1L7,19.6z M6.5,20.3
		l1.8,13.4l-2.1-13L6.5,20.3z M19.2,42.6L8.6,34.9l-0.1-0.4L19.2,42.6z M33.3,41.2l-13,2.1l-0.4-0.3L33.3,41.2z M35.1,41.2l-0.4,0.1
		l8.4-11.7L35.1,41.2z M43.5,29l-0.3,0.4L41,15.2L43.5,29z M40.9,15L29.2,6.5l11.6,7.9L40.9,15z M29,6.4L14.8,8.7l13.8-2.6L29,6.4z
		 M14.1,8.8l0.4-0.1L6.1,20.4L14.1,8.8z M5.7,21L6,20.6l2.3,14.2L5.7,21z M8.3,35L20,43.5L8.4,35.5L8.3,35z"/>
</g>
<g>
	<g>
		<path fill="#999999" d="M79.7,20.5c0,0.9-0.1,1.7-0.5,2.5c-0.3,0.8-0.7,1.4-1.3,2s-1.2,1-2,1.3c-0.8,0.3-1.6,0.5-2.5,0.5h-3.7
			c-0.9,0-1.7-0.1-2.5-0.5c-0.8-0.3-1.4-0.7-2-1.3s-1-1.2-1.3-2c-0.3-0.8-0.5-1.6-0.5-2.5v-2.9c0-0.9,0.1-1.7,0.5-2.5
			c0.3-0.8,0.7-1.4,1.3-2c0.6-0.6,1.2-1,2-1.3c0.8-0.3,1.6-0.5,2.5-0.5h3.7c0.9,0,1.7,0.1,2.5,0.5c0.8,0.3,1.4,0.7,2,1.3
			s1,1.2,1.3,2c0.3,0.8,0.5,1.6,0.5,2.5V20.5z M77,17.6c0-0.6-0.1-1-0.3-1.4c-0.2-0.4-0.4-0.8-0.7-1.1c-0.3-0.3-0.7-0.6-1.1-0.7
			c-0.4-0.2-0.9-0.3-1.4-0.3h-3.7c-0.5,0-1,0.1-1.4,0.3s-0.8,0.4-1.1,0.7c-0.3,0.3-0.6,0.7-0.7,1.1c-0.2,0.4-0.3,0.9-0.3,1.4v2.9
			c0,0.6,0.1,1,0.3,1.4c0.2,0.4,0.4,0.8,0.7,1.1c0.3,0.3,0.7,0.6,1.1,0.7c0.4,0.2,0.9,0.3,1.4,0.3h3.7c0.5,0,1-0.1,1.4-0.3
			s0.8-0.4,1.1-0.7c0.3-0.3,0.6-0.7,0.7-1.1S77,21,77,20.5L77,17.6L77,17.6z"/>
		<path fill="#999999" d="M85.2,26.6h-2.7V11.5h2.7V26.6z M98.2,26.6h-3.9l-6.2-6.2h-1.9v-2.7h1.9l6.2-6.2h3.9l-7.8,7.5L98.2,26.6z"
			/>
		<path fill="#999999" d="M114.4,22.2c0,0.6-0.1,1-0.2,1.4c-0.1,0.4-0.3,0.8-0.6,1.2c-0.2,0.3-0.5,0.6-0.8,0.9
			c-0.3,0.2-0.6,0.4-0.9,0.6c-0.3,0.1-0.7,0.3-1,0.3c-0.3,0.1-0.6,0.1-0.9,0.1H99.5v-2.7H110c0.5,0,0.9-0.1,1.2-0.4
			c0.3-0.3,0.4-0.7,0.4-1.2c0-0.3,0-0.5-0.1-0.7c-0.1-0.2-0.2-0.4-0.3-0.6s-0.3-0.3-0.5-0.4c-0.2-0.1-0.4-0.1-0.7-0.1h-6.3
			c-0.4,0-0.9-0.1-1.4-0.2c-0.5-0.1-1-0.4-1.4-0.8c-0.4-0.3-0.8-0.8-1.1-1.4c-0.3-0.6-0.4-1.3-0.4-2.1c0-0.8,0.1-1.5,0.4-2.1
			c0.3-0.6,0.7-1,1.1-1.4c0.4-0.4,0.9-0.6,1.4-0.8c0.5-0.1,1-0.2,1.4-0.2h9.3v2.7h-9.3c-0.5,0-0.9,0.1-1.2,0.5
			c-0.3,0.3-0.4,0.7-0.4,1.3c0,0.5,0.1,0.9,0.4,1.3c0.3,0.3,0.7,0.4,1.2,0.4h6.3h0c0.3,0,0.6,0,0.9,0.1c0.3,0.1,0.7,0.2,1,0.3
			c0.3,0.1,0.6,0.3,0.9,0.6c0.3,0.2,0.6,0.5,0.8,0.9c0.2,0.3,0.4,0.7,0.6,1.2C114.4,21.2,114.4,21.6,114.4,22.2z"/>
		<path fill="#999999" d="M130.2,26.6h-9.9c-0.3,0-0.5,0-0.8-0.1c-0.3-0.1-0.6-0.1-0.9-0.3c-0.3-0.1-0.6-0.3-0.8-0.5
			c-0.3-0.2-0.5-0.4-0.7-0.7c-0.2-0.3-0.4-0.6-0.5-1c-0.1-0.4-0.2-0.8-0.2-1.3v-7.4c0-0.3,0-0.5,0.1-0.8c0.1-0.3,0.1-0.6,0.3-0.9
			c0.1-0.3,0.3-0.6,0.5-0.8c0.2-0.3,0.4-0.5,0.7-0.7c0.3-0.2,0.6-0.4,1-0.5c0.4-0.1,0.8-0.2,1.3-0.2h9.9v2.7h-9.9
			c-0.4,0-0.6,0.1-0.8,0.3s-0.3,0.5-0.3,0.9v7.4c0,0.3,0.1,0.6,0.3,0.8s0.5,0.3,0.8,0.3h9.9V26.6z"/>
		<path fill="#999999" d="M135.5,17.7h9.6v-6.2h2.7v15.1h-2.7v-6.2h-9.6v6.2h-2.7V11.5h2.7V17.7z"/>
		<path fill="#999999" d="M165.8,26.6h-2.7v-3.7h-9.6v3.7h-2.7v-7.5c0-1.1,0.2-2.1,0.6-3s0.9-1.7,1.6-2.4c0.7-0.7,1.5-1.2,2.4-1.6
			c0.9-0.4,1.9-0.6,3-0.6h6.2c0.2,0,0.4,0,0.5,0.1c0.2,0.1,0.3,0.2,0.4,0.3s0.2,0.3,0.3,0.4s0.1,0.3,0.1,0.5L165.8,26.6L165.8,26.6z
			 M153.5,20.2h9.6v-5.9h-4.8c-0.1,0-0.3,0-0.5,0c-0.3,0-0.6,0.1-0.9,0.2c-0.4,0.1-0.7,0.3-1.1,0.4c-0.4,0.2-0.7,0.5-1.1,0.9
			c-0.3,0.4-0.6,0.8-0.8,1.3c-0.2,0.5-0.3,1.2-0.3,2V20.2z"/>
		<path fill="#999999" d="M171.7,26.6H169V11.5h2.7V26.6z"/>
		<path fill="#999999" d="M190,25.5c0,0.2,0,0.4-0.1,0.6c-0.1,0.2-0.2,0.3-0.3,0.4c-0.1,0.1-0.3,0.2-0.4,0.3
			c-0.2,0.1-0.3,0.1-0.5,0.1s-0.3,0-0.5-0.1c-0.2-0.1-0.3-0.1-0.4-0.3l-10-10.4v10.6h-2.7V12.7c0-0.3,0.1-0.5,0.2-0.8
			c0.1-0.2,0.4-0.4,0.6-0.5c0.3-0.1,0.5-0.1,0.8-0.1c0.3,0,0.5,0.2,0.7,0.4l10,10.4V11.5h2.7L190,25.5L190,25.5z"/>
	</g>
	<g>
		<path fill="#999999" d="M68,38.2c0,0.1,0,0.1,0,0.1c0,0,0,0.1-0.1,0.1c0,0-0.1,0.1-0.1,0.1c0,0-0.1,0-0.1,0s-0.1,0-0.1,0
			c0,0-0.1,0-0.1-0.1l-3-3.1v3.2h-0.8v-4.1c0-0.1,0-0.1,0.1-0.2c0-0.1,0.1-0.1,0.2-0.1c0.1,0,0.1,0,0.2,0c0.1,0,0.1,0,0.2,0.1l3,3.1
			v-3.2H68L68,38.2L68,38.2z"/>
		<path fill="#999999" d="M75.7,38.6h-3c-0.1,0-0.2,0-0.4-0.1s-0.3-0.1-0.4-0.2s-0.2-0.2-0.3-0.4s-0.1-0.3-0.1-0.5v-2.9
			c0-0.1,0-0.1,0-0.1s0-0.1,0.1-0.1c0,0,0.1-0.1,0.1-0.1c0,0,0.1,0,0.1,0h3.7v0.8h-3.3v2.5c0,0.1,0,0.2,0.1,0.3
			c0.1,0.1,0.1,0.1,0.3,0.1h3L75.7,38.6L75.7,38.6z M75.4,36.7h-2.6v-0.8h2.6V36.7z"/>
		<path fill="#999999" d="M85.1,34.1l-0.7,4.2c0,0.1,0,0.1-0.1,0.2c-0.1,0.1-0.1,0.1-0.2,0.1c-0.1,0-0.2,0-0.3,0
			c-0.1,0-0.1-0.1-0.2-0.1L82,36l-1.5,2.4c0,0.1-0.1,0.1-0.1,0.1c-0.1,0-0.1,0-0.2,0c-0.1,0-0.2,0-0.3-0.1c-0.1-0.1-0.1-0.1-0.1-0.3
			L79,34.1h0.8l0.6,3l1.3-2c0-0.1,0.1-0.1,0.1-0.1s0.1,0,0.2,0s0.1,0,0.2,0c0.1,0,0.1,0.1,0.1,0.1l1.3,2l0.6-3H85.1z"/>
		<path fill="#999999" d="M97.4,38.6h-3c-0.1,0-0.2,0-0.4-0.1c-0.1,0-0.3-0.1-0.4-0.2c-0.1-0.1-0.2-0.2-0.3-0.4
			c-0.1-0.1-0.1-0.3-0.1-0.5v-2.9c0-0.1,0-0.1,0-0.1c0,0,0-0.1,0.1-0.1c0,0,0.1-0.1,0.1-0.1c0,0,0.1,0,0.1,0h3.7v0.8h-3.3v2.5
			c0,0.1,0,0.2,0.1,0.3c0.1,0.1,0.1,0.1,0.3,0.1h3L97.4,38.6L97.4,38.6z M97,36.7h-2.6v-0.8H97V36.7z"/>
		<path fill="#999999" d="M105.5,35.6c0,0.2,0,0.4-0.1,0.5c0,0.1-0.1,0.3-0.2,0.4c-0.1,0.1-0.2,0.2-0.3,0.3
			c-0.1,0.1-0.2,0.1-0.3,0.2c-0.1,0-0.2,0.1-0.3,0.1c-0.1,0-0.2,0-0.3,0l1.7,1.5h-1.3l-1.7-1.5h-0.6v-0.8h1.9c0.1,0,0.2,0,0.3-0.1
			c0.1,0,0.1-0.1,0.2-0.1c0.1-0.1,0.1-0.1,0.1-0.2c0-0.1,0-0.2,0-0.3V35c0,0,0-0.1,0-0.1s0,0,0,0s0,0-0.1,0c0,0,0,0,0,0h-2.7v3.7
			h-0.9v-4.1c0-0.1,0-0.1,0-0.1c0,0,0-0.1,0.1-0.1c0,0,0.1-0.1,0.1-0.1c0,0,0.1,0,0.1,0h3.1c0.2,0,0.3,0,0.4,0.1
			c0.1,0.1,0.2,0.1,0.3,0.3c0.1,0.1,0.1,0.2,0.2,0.3c0,0.1,0,0.2,0,0.3L105.5,35.6L105.5,35.6L105.5,35.6z"/>
		<path fill="#999999" d="M113.4,38.6h-0.8v-1.1h-2.9v1.1h-0.8v-2.3c0-0.3,0.1-0.6,0.2-0.9c0.1-0.3,0.3-0.5,0.5-0.7
			c0.2-0.2,0.4-0.4,0.7-0.5c0.3-0.1,0.6-0.1,0.9-0.1h1.9c0.1,0,0.1,0,0.1,0c0,0,0.1,0,0.1,0.1c0,0,0.1,0.1,0.1,0.1c0,0,0,0.1,0,0.1
			L113.4,38.6L113.4,38.6z M109.8,36.7h2.9v-1.8h-1.4c0,0-0.1,0-0.1,0c-0.1,0-0.2,0-0.3,0c-0.1,0-0.2,0.1-0.3,0.1
			c-0.1,0.1-0.2,0.1-0.3,0.3c-0.1,0.1-0.2,0.2-0.3,0.4c-0.1,0.1-0.1,0.4-0.1,0.6L109.8,36.7L109.8,36.7z"/>
		<path fill="#999999" d="M126.7,36.8c0,0.3,0,0.5-0.1,0.7c-0.1,0.2-0.2,0.4-0.4,0.6c-0.2,0.2-0.4,0.3-0.6,0.4
			c-0.2,0.1-0.5,0.1-0.7,0.1h-1.1c-0.3,0-0.5,0-0.7-0.1c-0.2-0.1-0.4-0.2-0.6-0.4c-0.2-0.2-0.3-0.4-0.4-0.6
			c-0.1-0.2-0.1-0.5-0.1-0.7v-0.9c0-0.3,0-0.5,0.1-0.7c0.1-0.2,0.2-0.4,0.4-0.6c0.2-0.1,0.4-0.3,0.6-0.4c0.2-0.1,0.5-0.1,0.7-0.1
			h1.1c0.3,0,0.5,0,0.7,0.1c0.2,0.1,0.4,0.2,0.6,0.4c0.2,0.1,0.3,0.4,0.4,0.6c0.1,0.2,0.1,0.5,0.1,0.7V36.8z M125.9,35.9
			c0-0.1,0-0.3-0.1-0.4c0-0.1-0.1-0.3-0.2-0.3c-0.1-0.1-0.2-0.1-0.3-0.2c-0.1,0-0.3-0.1-0.4-0.1h-1.1c-0.1,0-0.3,0-0.4,0.1
			c-0.1,0-0.3,0.1-0.3,0.2c-0.1,0.1-0.2,0.2-0.2,0.3c0,0.1-0.1,0.3-0.1,0.4v0.9c0,0.1,0,0.3,0.1,0.4c0,0.1,0.1,0.3,0.2,0.3
			c0.1,0.1,0.2,0.1,0.3,0.2c0.1,0,0.3,0.1,0.4,0.1h1.1c0.1,0,0.3,0,0.4-0.1c0.1,0,0.3-0.1,0.3-0.2c0.1-0.1,0.2-0.2,0.2-0.3
			c0-0.1,0.1-0.3,0.1-0.4V35.9z"/>
		<path fill="#999999" d="M134.4,34.9h-3.3v3.7h-0.8v-4.1c0-0.1,0-0.1,0-0.1s0-0.1,0.1-0.1c0,0,0.1-0.1,0.1-0.1c0,0,0.1,0,0.1,0h3.7
			L134.4,34.9L134.4,34.9z M134,36.7h-2.6v-0.8h2.6V36.7z"/>
		<path fill="#999999" d="M146.7,34.9h-3.3v3.7h-0.8v-4.1c0-0.1,0-0.1,0-0.1s0-0.1,0.1-0.1s0.1-0.1,0.1-0.1c0,0,0.1,0,0.1,0h3.7
			L146.7,34.9L146.7,34.9z M146.4,36.7h-2.6v-0.8h2.6V36.7z"/>
		<path fill="#999999" d="M150.9,38.6h-0.8v-4.5h0.8V38.6z"/>
		<path fill="#999999" d="M159.2,38.2c0,0.1,0,0.1,0,0.1c0,0,0,0.1-0.1,0.1s-0.1,0.1-0.1,0.1c0,0-0.1,0-0.1,0c0,0-0.1,0-0.1,0
			c0,0-0.1,0-0.1-0.1l-3-3.1v3.2h-0.8v-4.1c0-0.1,0-0.1,0.1-0.2c0-0.1,0.1-0.1,0.2-0.1c0.1,0,0.1,0,0.2,0c0.1,0,0.1,0,0.2,0.1l3,3.1
			v-3.2h0.8V38.2L159.2,38.2z"/>
		<path fill="#999999" d="M166.9,34.9h-1.8v3.7h-0.8v-3.7h-1.8v-0.8h4.5L166.9,34.9L166.9,34.9z"/>
		<path fill="#999999" d="M174.3,38.6h-3c-0.1,0-0.2,0-0.4-0.1c-0.1,0-0.3-0.1-0.4-0.2c-0.1-0.1-0.2-0.2-0.3-0.4
			c-0.1-0.1-0.1-0.3-0.1-0.5v-2.9c0-0.1,0-0.1,0-0.1s0-0.1,0.1-0.1c0,0,0.1-0.1,0.1-0.1c0,0,0.1,0,0.1,0h3.7v0.8h-3.2v2.5
			c0,0.1,0,0.2,0.1,0.3c0.1,0.1,0.1,0.1,0.3,0.1h3L174.3,38.6L174.3,38.6z M174,36.7h-2.6v-0.8h2.6V36.7z"/>
		<path fill="#999999" d="M181.9,38.6h-3c-0.1,0-0.1,0-0.3,0c-0.1,0-0.2,0-0.3-0.1c-0.1,0-0.1-0.1-0.3-0.1c-0.1-0.1-0.1-0.1-0.2-0.2
			c-0.1-0.1-0.1-0.2-0.1-0.3c0-0.1,0-0.2,0-0.4v-2.2c0-0.1,0-0.1,0-0.3c0-0.1,0-0.2,0.1-0.3c0-0.1,0.1-0.1,0.1-0.3
			c0.1-0.1,0.1-0.1,0.2-0.2c0.1-0.1,0.2-0.1,0.3-0.1c0.1,0,0.2,0,0.4,0h3v0.9h-3c-0.1,0-0.2,0-0.3,0.1c-0.1,0.1-0.1,0.1-0.1,0.3v2.2
			c0,0.1,0,0.2,0.1,0.3s0.1,0.1,0.3,0.1h3L181.9,38.6C181.9,38.6,181.9,38.6,181.9,38.6z"/>
		<path fill="#999999" d="M186.3,35.9h2.9v-1.9h0.8v4.5h-0.8v-1.9h-2.9v1.9h-0.8v-4.5h0.8V35.9z"/>
	</g>
</g>
</svg>
