<?xml version="1.0" encoding="utf-8"?>
<!-- Generator: Adobe Illustrator 24.0.2, SVG Export Plug-In . SVG Version: 6.00 Build 0)  -->
<svg version="1.1" id="Слой_1" xmlns="http://www.w3.org/2000/svg" xmlns:xlink="http://www.w3.org/1999/xlink" x="0px" y="0px"
	 viewBox="0 0 512 132.7" style="enable-background:new 0 0 512 132.7;" xml:space="preserve">
<style type="text/css">
	.st0{fill:#FFC40C;}
</style>
<g>
	<path class="st0" d="M114.8,21.1l-0.1-0.1L68.5,0L21.1,17.9L21,18L0,64.2l17.9,47.4l0.1,0.1l46.1,20.9l0.1,0.1l47.4-17.9l0.1-0.1
		l20.9-46.1l0.1-0.1L114.8,21.1z M111.2,114.2l-47,17.7l-45.7-20.7l-17.7-47l20.7-45.7l47-17.7l45.7,20.7l17.7,47L111.2,114.2z"/>
	<path class="st0" d="M69.4,1.5L22.6,18.3l-21.1,45l16.8,46.6l0.1,0.1l45,21.1l46.6-16.8l0.1-0.1l21.1-45l-16.8-46.6l-0.1-0.1
		L69.4,1.5L69.4,1.5z M130.4,69.3l-20.9,44.4l-46.2,16.7l-44.4-20.9L2.2,63.4L23.1,19L69.3,2.2l44.4,20.9L130.4,69.3z"/>
	<path class="st0" d="M24.3,18.7L2.9,62.4l15.8,45.8v0.1l43.7,21.3l45.8-15.8h0.1l21.3-43.7L114,24.4v-0.1L70.4,3l-0.1-0.1
		L24.4,18.7H24.3z M70.2,3.7l43.2,21.1L129,70.2l-21.1,43.2L62.5,129l-43.2-21.1L3.7,62.5l21.1-43.2L70.2,3.7z"/>
	<path class="st0" d="M19.2,106.7l42.3,21.5l0.1,0.1l45.2-14.8l21.5-42.3l0.1-0.1L113.7,26v-0.1L71.1,4.4L25.9,19.2L4.5,61.4
		l-0.1,0.1L19.2,106.7z M26.4,19.7L71.1,5.2L113,26.5l14.6,44.6L106.3,113l-44.6,14.6l-41.9-21.3L5.2,61.6L26.4,19.7z"/>
	<path class="st0" d="M60.7,126.8l44.4-13.7l21.7-41l0.1-0.1l-13.7-44.3v-0.1l-41-21.7l-0.2,0L27.6,19.6L5.9,60.7l13.7,44.4l41,21.7
		H60.7z M6.6,60.7L28,20.1L71.9,6.6L112.5,28L126,71.9l-21.4,40.6L60.7,126l-40.6-21.4L6.6,60.7z"/>
	<path class="st0" d="M125.3,73L125.3,73l-12.5-43.6v-0.1L73,7.4l-0.1-0.1L29.4,19.9h-0.1L7.4,59.6l-0.1,0.1l12.6,43.5v0.1
		l39.7,21.9l0.1,0.1l43.6-12.6L125.3,73z M59.9,124.6L20.6,103L8.1,59.9l21.6-39.3L72.8,8.1l39.3,21.6l12.5,43.1L103,112.1
		L59.9,124.6z"/>
	<path class="st0" d="M112.3,31.1V31L73.9,9l-0.1-0.1L31.1,20.3H31L9,58.7l-0.1,0.1l11.5,42.7v0.1l38.4,22l0.1,0.1l42.7-11.5h0.1
		l22-38.4l0.1-0.1L112.3,31.1z M101.3,111.7L59,123.1l-38-21.8L9.6,59l21.8-38L73.7,9.6l38,21.8l11.4,42.3L101.3,111.7z"/>
	<path class="st0" d="M32.6,20.8L10.3,58l10.5,42.1l37.1,22.2l0.1,0.1l42.1-10.5l22.2-37.1l0.1-0.1l-10.5-42.1L74.7,10.3L32.6,20.8z
		 M121.6,74.6l-22,36.7l-41.5,10.4l-36.7-22L11,58.1l22-36.7L74.6,11l36.7,22L121.6,74.6z"/>
	<path class="st0" d="M11.8,57l-0.1,0.1l9.5,41.3L57,120.9l0.1,0.1l41.3-9.5l22.4-35.8l0.1-0.1l-9.4-41.2v-0.1L75.7,11.8l-0.1-0.1
		l-41.3,9.5L11.8,57z M75.4,12.5l35.4,22.2l9.3,40.7L98,110.8l-40.7,9.3L21.8,98l-9.3-40.7l22.2-35.4L75.4,12.5z"/>
	<path class="st0" d="M21.6,96.6L21.6,96.6l34.6,22.8l40.5-8.4l22.7-34.6L111,36v-0.1L76.6,13.3l-0.1-0.1l-40.4,8.4H36L13.3,56.1
		l-0.1,0.1L21.6,96.6z M36.4,22.3L76.3,14l34.1,22.4l8.3,39.9l-22.4,34.1l-39.9,8.3L22.3,96.3L14,56.4L36.4,22.3z"/>
	<path class="st0" d="M95.1,110.7L118,77.4l-7.3-39.8L77.5,14.8l-0.1-0.1L37.6,22L14.7,55.3L22,95.1L55.3,118L95.1,110.7z
		 M54.5,116.5l38.3-6.2l-37.2,6.9L54.5,116.5z M25.7,49.4l23.9-23.8l33.7,0.1l23.8,23.9L107,83.3l-23.9,23.8L49.4,107L25.6,83.1
		L25.7,49.4z M101.5,89.8l-16.8,17.7h-1.1L101.5,89.8z M107.7,83.2l0.1-25.2l0.7,24.4L107.7,83.2z M89.8,31.2L107.5,48v1.1
		L89.8,31.2z M83.2,25L58,24.9l24.4-0.7L83.2,25z M49,25.2L31.2,42.9L48,25.2H49z M25,49.5l-0.1,25.2l-0.7-24.4L25,49.5z
		 M42.9,101.5L25.2,84.7v-1.1L42.9,101.5z M49.5,107.7l25.2,0.1l-24.4,0.7L49.5,107.7z M104,88.2l-17.6,19.7l-1.1,0.1L104,88.2z
		 M109.2,82.4l-0.8-27.2l1.5,26.4L109.2,82.4z M88.2,28.7l19.7,17.6l0.1,1.1L88.2,28.7z M55.1,24.3l26.4-1.5l0.8,0.7L55.1,24.3z
		 M47.4,24.7L28.7,44.5l17.6-19.7L47.4,24.7z M23.5,50.3l0.8,27.3l-1.5-26.4L23.5,50.3z M44.5,104L24.8,86.4l-0.1-1.1L44.5,104z
		 M77.5,108.4l-26.4,1.5l-0.8-0.7L77.5,108.4z M106.5,86.5L88,108.3l-1.1,0.1L106.5,86.5z M110.6,81.6L109,52.2l2.4,28.5L110.6,81.6
		z M86.5,26.2l21.9,18.4l0.1,1.1L86.5,26.2z M52.2,23.7l28.5-2.4l0.9,0.7L52.2,23.7z M45.8,24.3L26.2,46.2l18.4-21.8L45.8,24.3z
		 M22,51.1l1.7,29.4L21.3,52L22,51.1z M46.2,106.5L24.4,88l-0.1-1.1L46.2,106.5z M80.5,109L52,111.4l-0.9-0.7L80.5,109z M109,84.7
		l-19.3,24.1l-1.2,0.1L109,84.7z M112.1,80.7l-2.7-31.6l3.4,30.6L112.1,80.7z M84.7,23.7l24,19.3l0.1,1.2L84.7,23.7z M49.2,23.2
		l30.6-3.4l0.9,0.7L49.2,23.2z M44.2,23.8L23.7,48L43,23.9L44.2,23.8z M20.6,52l2.7,31.6L19.9,53L20.6,52z M48,108.9L24,89.7
		l-0.1-1.2L48,108.9z M83.5,109.4l-30.6,3.4l-0.9-0.7L83.5,109.4z M111.3,82.8l-20,26.3l-1.2,0.2L111.3,82.8z M113.6,79.9l-3.8-33.8
		l4.5,32.8L113.6,79.9z M82.8,21.3l26.4,20l0.2,1.2L82.8,21.3z M46.2,22.9L79,18.4l1,0.7L46.2,22.9z M42.5,23.4L21.3,49.9l20-26.3
		L42.5,23.4z M19.1,52.8l3.8,33.7l-4.5-32.8L19.1,52.8z M49.9,111.4l-26.4-20l-0.2-1.2L49.9,111.4z M86.5,109.8l-32.8,4.5l-1-0.7
		L86.5,109.8z M113.7,80.9L93,109.6l-1.2,0.2L113.7,80.9z M115.1,79.1l-4.9-36l5.6,35L115.1,79.1z M80.8,18.9l28.7,20.8l0.2,1.2
		L80.8,18.9z M43.1,22.6l35-5.6l1,0.7L43.1,22.6z M18.9,51.8l20.8-28.7l1.2-0.2L18.9,51.8z M17.6,53.6l4.9,36l-5.6-35L17.6,53.6z
		 M51.8,113.7L23.1,93l-0.2-1.2L51.8,113.7z M89.6,110.1l-35,5.6l-1-0.7L89.6,110.1z M94.7,110l-1.2,0.2l22.7-31.4L94.7,110z
		 M117.2,77.2l-0.7,1L110.4,40L117.2,77.2z M110.2,39.3L78.8,16.6L110,38L110.2,39.3z M78.2,16.2L40,22.3l37.2-6.9L78.2,16.2z
		 M38,22.7l1.2-0.2L16.5,53.9L38,22.7z M15.4,55.5l0.7-1l6.2,38.3L15.4,55.5z M22.5,93.4l31.4,22.7L22.7,94.7L22.5,93.4z"/>
</g>
<g>
	<g>
		<path class="st0" d="M214.9,54.3c0,2.5-0.4,4.7-1.3,6.8c-0.9,2.1-2,3.9-3.5,5.4s-3.3,2.7-5.4,3.5c-2.1,0.8-4.3,1.3-6.8,1.3h-10
			c-2.4,0-4.7-0.4-6.8-1.3s-3.9-2-5.4-3.5s-2.7-3.3-3.6-5.4c-0.9-2.1-1.3-4.4-1.3-6.8v-7.8c0-2.5,0.4-4.7,1.3-6.8
			c0.9-2.1,2-3.9,3.6-5.4c1.5-1.5,3.3-2.7,5.4-3.5s4.3-1.3,6.8-1.3h10c2.4,0,4.7,0.4,6.8,1.3c2.1,0.8,3.9,2,5.4,3.5s2.7,3.3,3.5,5.4
			c0.9,2.1,1.3,4.4,1.3,6.8V54.3z M207.5,46.5c0-1.5-0.2-2.8-0.7-3.9c-0.5-1.2-1.1-2.2-2-3c-0.8-0.8-1.9-1.5-3-2
			c-1.2-0.5-2.5-0.7-3.9-0.7h-10c-1.4,0-2.7,0.2-3.9,0.7s-2.2,1.1-3,2c-0.9,0.8-1.5,1.8-2,3s-0.7,2.5-0.7,3.9v7.8
			c0,1.5,0.2,2.8,0.7,3.9c0.5,1.2,1.1,2.2,2,3s1.9,1.5,3,2c1.2,0.5,2.5,0.7,3.9,0.7h9.9c1.4,0,2.7-0.2,3.9-0.7s2.2-1.1,3-2
			c0.9-0.8,1.5-1.8,2-3s0.7-2.5,0.7-3.9v-7.8H207.5z"/>
		<path class="st0" d="M229.5,70.7h-7.4V30.1h7.4V70.7z M264.7,70.7h-10.5l-16.6-16.6h-5.2v-7.4h5.2l16.6-16.6h10.5l-20.9,20.3
			L264.7,70.7z"/>
		<path class="st0" d="M308.3,58.8c0,1.5-0.2,2.8-0.6,3.9c-0.4,1.2-0.9,2.2-1.5,3.1s-1.3,1.6-2.1,2.3c-0.8,0.6-1.7,1.1-2.5,1.5
			c-0.9,0.4-1.8,0.7-2.7,0.9c-0.9,0.2-1.7,0.3-2.5,0.3H268v-7.4h28.4c1.4,0,2.5-0.4,3.3-1.2s1.2-1.9,1.2-3.3c0-0.7-0.1-1.3-0.3-1.9
			c-0.2-0.6-0.5-1.1-0.9-1.5s-0.9-0.7-1.4-1c-0.6-0.2-1.2-0.3-1.9-0.3h-17c-1.2,0-2.5-0.2-3.9-0.6s-2.7-1.1-3.8-2.1
			c-1.2-0.9-2.2-2.2-2.9-3.7c-0.8-1.5-1.2-3.4-1.2-5.6s0.4-4.1,1.2-5.6c0.8-1.5,1.8-2.8,2.9-3.7c1.2-1,2.5-1.6,3.8-2.1
			c1.4-0.4,2.7-0.6,3.9-0.6h25.1v7.4h-25.1c-1.4,0-2.5,0.4-3.3,1.3c-0.8,0.8-1.2,2-1.2,3.4s0.4,2.5,1.2,3.4c0.8,0.8,1.9,1.2,3.3,1.2
			h17h0.1c0.8,0,1.6,0.1,2.5,0.3s1.8,0.5,2.7,0.9c0.9,0.4,1.7,0.9,2.5,1.6c0.8,0.6,1.5,1.4,2.1,2.3c0.6,0.9,1.1,1.9,1.5,3.1
			C308.2,56,308.3,57.3,308.3,58.8z"/>
		<path class="st0" d="M350.8,70.7h-26.6c-0.7,0-1.4-0.1-2.2-0.2c-0.8-0.2-1.6-0.4-2.3-0.8c-0.8-0.3-1.5-0.8-2.2-1.3s-1.3-1.2-1.9-2
			c-0.5-0.8-1-1.7-1.3-2.7c-0.3-1-0.5-2.1-0.5-3.4V40.4c0-0.7,0.1-1.4,0.2-2.2c0.2-0.8,0.4-1.6,0.8-2.3c0.3-0.8,0.8-1.5,1.3-2.2
			s1.2-1.3,2-1.9c0.8-0.5,1.6-1,2.7-1.3c1-0.3,2.1-0.5,3.4-0.5h26.6v7.4h-26.6c-1,0-1.7,0.3-2.2,0.8s-0.8,1.3-0.8,2.3v19.9
			c0,0.9,0.3,1.7,0.8,2.2s1.3,0.8,2.2,0.8h26.6V70.7z"/>
		<path class="st0" d="M365.2,46.7h25.9V30.1h7.4v40.6h-7.4V54.1h-25.9v16.6h-7.4V30.1h7.4V46.7z"/>
		<path class="st0" d="M446.9,70.7h-7.4v-10h-25.9v10h-7.4V50.4c0-3,0.5-5.7,1.5-8.2s2.4-4.6,4.3-6.4c1.8-1.8,4-3.2,6.4-4.2
			c2.5-1,5.2-1.5,8.1-1.5h16.6c0.5,0,1,0.1,1.4,0.3c0.5,0.2,0.9,0.5,1.2,0.8c0.3,0.3,0.6,0.7,0.8,1.2c0.2,0.5,0.3,0.9,0.3,1.4v36.9
			H446.9z M413.6,53.4h25.9V37.5h-13c-0.2,0-0.7,0-1.4,0.1c-0.7,0.1-1.6,0.2-2.5,0.5c-1,0.3-2,0.7-3,1.2c-1.1,0.5-2,1.3-2.9,2.3
			s-1.6,2.2-2.2,3.6c-0.6,1.4-0.9,3.2-0.9,5.3V53.4z"/>
		<path class="st0" d="M462.8,70.7h-7.4V30.1h7.4V70.7z"/>
		<path class="st0" d="M512,67.6c0,0.5-0.1,1-0.3,1.5c-0.2,0.5-0.5,0.8-0.8,1.2c-0.3,0.3-0.7,0.6-1.2,0.8c-0.5,0.2-0.9,0.3-1.4,0.3
			s-0.9-0.1-1.4-0.3c-0.5-0.2-0.9-0.4-1.2-0.8l-26.9-28.1v28.6h-7.4V33.3c0-0.8,0.2-1.4,0.6-2.1c0.4-0.6,1-1.1,1.6-1.4
			c0.7-0.3,1.4-0.4,2.2-0.2c0.7,0.1,1.4,0.5,1.9,1l26.9,28.1V30.1h7.4L512,67.6L512,67.6z"/>
	</g>
	<g>
		<path class="st0" d="M183.2,102c0,0.2,0,0.3-0.1,0.4s-0.1,0.3-0.2,0.4c-0.1,0.1-0.2,0.2-0.4,0.2c-0.1,0.1-0.3,0.1-0.4,0.1
			c-0.1,0-0.3,0-0.4-0.1c-0.1-0.1-0.3-0.1-0.4-0.2l-8.1-8.4v8.5H171V91.8c0-0.2,0.1-0.4,0.2-0.6c0.1-0.2,0.3-0.3,0.5-0.4
			s0.4-0.1,0.6-0.1c0.2,0,0.4,0.1,0.6,0.3l8.1,8.4v-8.5h2.2L183.2,102L183.2,102z"/>
		<path class="st0" d="M204.1,103h-8c-0.3,0-0.6-0.1-1-0.2s-0.7-0.3-1-0.5s-0.6-0.6-0.8-1s-0.3-0.9-0.3-1.4V92c0-0.2,0-0.3,0.1-0.4
			s0.1-0.3,0.2-0.4c0.1-0.1,0.2-0.2,0.4-0.2c0.1-0.1,0.3-0.1,0.4-0.1h9.9V93h-8.9v6.8c0,0.3,0.1,0.5,0.2,0.7
			c0.2,0.2,0.4,0.2,0.7,0.2h8v2.3H204.1z M203.1,98h-7v-2.2h7V98z"/>
		<path class="st0" d="M229.2,90.8l-2,11.4c0,0.2-0.1,0.4-0.3,0.6s-0.4,0.3-0.6,0.3c-0.2,0-0.5,0-0.7-0.1s-0.4-0.2-0.5-0.4l-4-6.6
			l-4.1,6.6c-0.1,0.2-0.2,0.3-0.4,0.4s-0.3,0.1-0.5,0.1c-0.3,0-0.5-0.1-0.7-0.3s-0.3-0.4-0.4-0.7l-2-11.3h2.2l1.5,8l3.5-5.5
			c0.1-0.2,0.2-0.3,0.4-0.4s0.3-0.1,0.5-0.1s0.4,0,0.5,0.1c0.2,0.1,0.3,0.2,0.4,0.4l3.5,5.5l1.5-8H229.2z"/>
		<path class="st0" d="M262.5,103h-8c-0.3,0-0.6-0.1-1-0.2s-0.7-0.3-1-0.5s-0.6-0.6-0.8-1s-0.3-0.9-0.3-1.4V92c0-0.2,0-0.3,0.1-0.4
			s0.1-0.3,0.2-0.4c0.1-0.1,0.2-0.2,0.4-0.2c0.1-0.1,0.3-0.1,0.4-0.1h9.9V93h-8.9v6.8c0,0.3,0.1,0.5,0.2,0.7
			c0.2,0.2,0.4,0.2,0.7,0.2h8v2.3H262.5z M261.5,98h-7v-2.2h7V98z"/>
		<path class="st0" d="M284.2,94.9c0,0.5-0.1,1-0.2,1.3c-0.1,0.4-0.3,0.7-0.5,1s-0.5,0.6-0.7,0.8c-0.3,0.2-0.6,0.4-0.9,0.5
			s-0.6,0.2-0.9,0.3c-0.3,0.1-0.6,0.1-0.9,0.1l4.6,4h-3.4l-4.6-4h-1.6v-2.2h5c0.3,0,0.5-0.1,0.8-0.2c0.2-0.1,0.4-0.2,0.6-0.4
			c0.2-0.2,0.3-0.3,0.4-0.6s0.1-0.5,0.1-0.8v-1.4c0-0.1,0-0.2,0-0.3c0-0.1-0.1-0.1-0.1-0.1s-0.1,0-0.2-0.1c-0.1,0-0.1,0-0.1,0h-7.3
			v9.9H272v-11c0-0.2,0-0.3,0.1-0.4s0.1-0.3,0.2-0.4s0.2-0.2,0.4-0.2c0.1-0.1,0.3-0.1,0.4-0.1h8.4c0.5,0,0.9,0.1,1.2,0.3
			c0.3,0.2,0.6,0.4,0.8,0.7s0.4,0.6,0.5,0.9s0.1,0.6,0.1,0.9v1.5H284.2z"/>
		<path class="st0" d="M305.7,103h-2.2v-3h-7.8v3h-2.2v-6.1c0-0.9,0.2-1.7,0.5-2.4c0.3-0.7,0.7-1.4,1.3-1.9c0.5-0.5,1.2-1,1.9-1.3
			c0.7-0.3,1.6-0.4,2.4-0.4h5c0.2,0,0.3,0,0.4,0.1s0.3,0.1,0.4,0.2s0.2,0.2,0.2,0.4c0.1,0.1,0.1,0.3,0.1,0.4L305.7,103L305.7,103z
			 M295.8,97.8h7.8V93h-3.9c-0.1,0-0.2,0-0.4,0c-0.2,0-0.5,0.1-0.8,0.1c-0.3,0.1-0.6,0.2-0.9,0.4c-0.3,0.2-0.6,0.4-0.9,0.7
			c-0.3,0.3-0.5,0.6-0.7,1.1c-0.2,0.4-0.3,1-0.3,1.6L295.8,97.8L295.8,97.8z"/>
		<path class="st0" d="M341.5,98.1c0,0.7-0.1,1.4-0.4,2s-0.6,1.2-1.1,1.6c-0.5,0.5-1,0.8-1.6,1.1c-0.6,0.3-1.3,0.4-2,0.4h-3
			c-0.7,0-1.4-0.1-2-0.4s-1.2-0.6-1.6-1.1c-0.5-0.5-0.8-1-1.1-1.6c-0.3-0.6-0.4-1.3-0.4-2v-2.3c0-0.7,0.1-1.4,0.4-2s0.6-1.2,1.1-1.6
			s1-0.8,1.6-1.1c0.6-0.3,1.3-0.4,2-0.4h3c0.7,0,1.4,0.1,2,0.4s1.2,0.6,1.6,1.1c0.5,0.4,0.8,1,1.1,1.6c0.3,0.6,0.4,1.3,0.4,2V98.1z
			 M339.3,95.7c0-0.4-0.1-0.8-0.2-1.2c-0.1-0.4-0.3-0.7-0.6-0.9c-0.3-0.3-0.6-0.4-0.9-0.6c-0.4-0.1-0.7-0.2-1.2-0.2h-3
			c-0.4,0-0.8,0.1-1.2,0.2c-0.4,0.1-0.7,0.3-0.9,0.6c-0.3,0.3-0.5,0.6-0.6,0.9c-0.1,0.4-0.2,0.7-0.2,1.2V98c0,0.4,0.1,0.8,0.2,1.2
			c0.1,0.4,0.3,0.7,0.6,0.9c0.3,0.3,0.6,0.4,0.9,0.6c0.4,0.1,0.7,0.2,1.2,0.2h3c0.4,0,0.8-0.1,1.2-0.2c0.4-0.1,0.7-0.3,0.9-0.6
			c0.3-0.3,0.5-0.6,0.6-0.9c0.1-0.4,0.2-0.7,0.2-1.2V95.7z"/>
		<path class="st0" d="M362.1,93h-8.9v9.9H351v-11c0-0.2,0-0.3,0.1-0.4s0.1-0.3,0.2-0.4s0.2-0.2,0.4-0.2c0.1-0.1,0.3-0.1,0.4-0.1
			h9.9V93H362.1z M361.1,98h-7v-2.2h7V98z"/>
		<path class="st0" d="M395.4,93h-8.9v9.9h-2.2v-11c0-0.2,0-0.3,0.1-0.4s0.1-0.3,0.2-0.4s0.2-0.2,0.4-0.2c0.1-0.1,0.3-0.1,0.4-0.1
			h9.9V93H395.4z M394.4,98h-7v-2.2h7V98z"/>
		<path class="st0" d="M406.7,103h-2.2V90.8h2.2V103z"/>
		<path class="st0" d="M428.9,102c0,0.2,0,0.3-0.1,0.4s-0.1,0.3-0.2,0.4s-0.2,0.2-0.4,0.2c-0.1,0.1-0.3,0.1-0.4,0.1s-0.3,0-0.4-0.1
			s-0.3-0.1-0.4-0.2l-8.1-8.4v8.5h-2.2V91.8c0-0.2,0.1-0.4,0.2-0.6s0.3-0.3,0.5-0.4s0.4-0.1,0.6-0.1s0.4,0.1,0.6,0.3l8.1,8.4v-8.5
			h2.2L428.9,102L428.9,102z"/>
		<path class="st0" d="M449.8,93H445v9.9h-2.2V93h-4.9v-2.2h12V93H449.8z"/>
		<path class="st0" d="M469.8,103h-8c-0.3,0-0.6-0.1-1-0.2s-0.7-0.3-1-0.5s-0.6-0.6-0.8-1c-0.2-0.4-0.3-0.9-0.3-1.4V92
			c0-0.2,0-0.3,0.1-0.4s0.1-0.3,0.2-0.4s0.2-0.2,0.4-0.2c0.1-0.1,0.3-0.1,0.4-0.1h9.9V93H461v6.8c0,0.3,0.1,0.5,0.2,0.7
			c0.2,0.2,0.4,0.2,0.7,0.2h8v2.3H469.8z M468.8,98h-7v-2.2h7V98z"/>
		<path class="st0" d="M490.3,103h-8c-0.2,0-0.4,0-0.7-0.1c-0.2,0-0.5-0.1-0.7-0.2s-0.4-0.2-0.7-0.4c-0.2-0.2-0.4-0.4-0.6-0.6
			s-0.3-0.5-0.4-0.8s-0.1-0.6-0.1-1v-6c0-0.2,0-0.4,0.1-0.7c0-0.2,0.1-0.5,0.2-0.7s0.2-0.4,0.4-0.7c0.2-0.2,0.4-0.4,0.6-0.6
			s0.5-0.3,0.8-0.4s0.6-0.1,1-0.1h8V93h-8c-0.3,0-0.5,0.1-0.7,0.2c-0.2,0.2-0.2,0.4-0.2,0.7v5.9c0,0.3,0.1,0.5,0.2,0.7
			s0.4,0.2,0.7,0.2h8v2.3H490.3z"/>
		<path class="st0" d="M501.9,95.8h7.8v-5h2.2V103h-2.2v-5h-7.8v5h-2.2V90.8h2.2V95.8z"/>
	</g>
</g>
</svg>
